{"asset":{"generator":"Khronos glTF Blender I/O v1.5.17","version":"2.0"},"scene":0,"scenes":[{"name":"Scene","nodes":[0]}],"nodes":[{"mesh":0,"name":"Executioner"}],"materials":[{"doubleSided":true,"name":"Texture","pbrMetallicRoughness":{"baseColorTexture":{"index":0},"metallicFactor":0}}],"meshes":[{"name":"Cube.000","primitives":[{"attributes":{"POSITION":0,"NORMAL":1,"TEXCOORD_0":2},"indices":3,"material":0}]}],"textures":[{"sampler":0,"source":0}],"images":[{"uri":"Executioner.png","name":"Executioner_Orange"}],"accessors":[{"bufferView":0,"componentType":5126,"count":3819,"max":[5.01106071472168,1.0724101066589355,6.124222278594971],"min":[-5.01106071472168,-0.7747538089752197,-3.077948808670044],"type":"VEC3"},{"bufferView":1,"componentType":5126,"count":3819,"type":"VEC3"},{"bufferView":2,"componentType":5126,"count":3819,"type":"VEC2"},{"bufferView":3,"componentType":5123,"count":10164,"type":"SCALAR"}],"bufferViews":[{"buffer":0,"byteLength":45828,"byteOffset":0},{"buffer":0,"byteLength":45828,"byteOffset":45828},{"buffer":0,"byteLength":30552,"byteOffset":91656},{"buffer":0,"byteLength":20328,"byteOffset":122208},{"buffer":0,"byteLength":4,"byteOffset":142536}],"samplers":[{"magFilter":9729,"minFilter":9987}],"buffers":[{"byteLength":142540,"uri":"Executioner.bin"}]}