{"asset":{"generator":"Khronos glTF Blender I/O v1.5.17","version":"2.0"},"scene":0,"scenes":[{"name":"Scene","nodes":[0]}],"nodes":[{"mesh":0,"name":"Striker"}],"materials":[{"doubleSided":true,"name":"Texture","pbrMetallicRoughness":{"baseColorTexture":{"index":0},"metallicFactor":0}}],"meshes":[{"name":"Spaceship2_Spaceship2","primitives":[{"attributes":{"POSITION":0,"NORMAL":1,"TEXCOORD_0":2},"indices":3,"material":0}]}],"textures":[{"sampler":0,"source":0}],"images":[{"uri":"Striker.png","name":"Striker_Orange"}],"accessors":[{"bufferView":0,"componentType":5126,"count":4911,"max":[2.516808271408081,1.2518599033355713,4.897094249725342],"min":[-2.516808271408081,-1.4327850341796875,-3.5290727615356445],"type":"VEC3"},{"bufferView":1,"componentType":5126,"count":4911,"type":"VEC3"},{"bufferView":2,"componentType":5126,"count":4911,"type":"VEC2"},{"bufferView":3,"componentType":5123,"count":13590,"type":"SCALAR"}],"bufferViews":[{"buffer":0,"byteLength":58932,"byteOffset":0},{"buffer":0,"byteLength":58932,"byteOffset":58932},{"buffer":0,"byteLength":39288,"byteOffset":117864},{"buffer":0,"byteLength":27180,"byteOffset":157152},{"buffer":0,"byteLength":4,"byteOffset":184332}],"samplers":[{"magFilter":9729,"minFilter":9987}],"buffers":[{"byteLength":184336,"uri":"Striker.bin"}]}